<?xml version="1.0" encoding="UTF-8" standalone="no"?>
<svg
   xmlns:dc="http://purl.org/dc/elements/1.1/"
   xmlns:cc="http://creativecommons.org/ns#"
   xmlns:rdf="http://www.w3.org/1999/02/22-rdf-syntax-ns#"
   xmlns:svg="http://www.w3.org/2000/svg"
   xmlns="http://www.w3.org/2000/svg"
   xmlns:sodipodi="http://sodipodi.sourceforge.net/DTD/sodipodi-0.dtd"
   xmlns:inkscape="http://www.inkscape.org/namespaces/inkscape"
   width="23.999985mm"
   height="24.000004mm"
   viewBox="0 0 23.999985 24.000003"
   version="1.1"
   id="svg8"
   inkscape:version="1.0.1 (3bc2e813f5, 2020-09-07)"
   sodipodi:docname="hook.svg">
  <defs
     id="defs2">
    <clipPath
       clipPathUnits="userSpaceOnUse"
       id="clipPath903">
      <rect
         style="fill:#0000ff;fill-opacity:0.47901;stroke-width:0.264583"
         id="rect905"
         width="37.455956"
         height="21.514431"
         x="25.367327"
         y="50.161671" />
    </clipPath>
  </defs>
  <sodipodi:namedview
     id="base"
     pagecolor="#ffffff"
     bordercolor="#666666"
     borderopacity="1.0"
     inkscape:pageopacity="0.0"
     inkscape:pageshadow="2"
     inkscape:zoom="2.8"
     inkscape:cx="-23.503295"
     inkscape:cy="70.554691"
     inkscape:document-units="mm"
     inkscape:current-layer="layer1"
     inkscape:document-rotation="0"
     showgrid="false"
     inkscape:window-width="1920"
     inkscape:window-height="1056"
     inkscape:window-x="0"
     inkscape:window-y="0"
     inkscape:window-maximized="1" />
  <metadata
     id="metadata5">
    <rdf:RDF>
      <cc:Work
         rdf:about="">
        <dc:format>image/svg+xml</dc:format>
        <dc:type
           rdf:resource="http://purl.org/dc/dcmitype/StillImage" />
        <dc:title></dc:title>
      </cc:Work>
    </rdf:RDF>
  </metadata>
  <g
     inkscape:label="Layer 1"
     inkscape:groupmode="layer"
     id="layer1"
     transform="translate(-30.238765,-27.400546)">
    <path
       style="fill:#000000;stroke-width:0.0280397"
       d="m 31.940516,46.762093 c -0.411183,-0.0377 -0.488176,-0.0654 -0.79633,-0.28692 -0.287001,-0.20629 -0.308204,-0.23038 -0.519679,-0.59044 -0.216394,-0.36843 -0.244518,-0.43634 -0.299114,-0.72225 -0.170614,-0.89347 -0.08988,-1.65418 0.248148,-2.33794 0.458761,-0.92802 1.295282,-1.55507 2.549117,-1.91081 0.583576,-0.16558 0.604921,-0.16707 2.840835,-0.19911 1.137264,-0.0162 2.282969,-0.0411 2.546009,-0.055 0.263042,-0.0139 2.236467,-0.0391 4.385391,-0.0557 2.148923,-0.0167 3.914953,-0.035 3.924512,-0.0408 0.0096,-0.006 0.593395,-0.0256 1.297417,-0.0441 0.843887,-0.0222 1.347137,-0.0469 1.476967,-0.0723 0.668855,-0.13129 1.380349,-0.79539 1.867245,-1.74289 0.441923,-0.85998 0.65131,-1.69019 0.650075,-2.57753 -9.6e-4,-0.65537 -0.08331,-1.06107 -0.308314,-1.51802 -0.327468,-0.66504 -0.809834,-1.0146 -1.629136,-1.18058 -0.203169,-0.0412 -0.377807,-0.0483 -1.081874,-0.0441 -0.461778,0.003 -0.845797,0.0111 -0.853375,0.0186 -0.0076,0.008 -0.05038,1.13714 -0.09512,2.51028 -0.04474,1.37312 -0.08482,2.5575 -0.08907,2.63193 l -0.0078,0.13536 -2.364955,-3.68463 -2.364956,-3.684629 3.23707,-0.02003 c 3.357011,-0.02078 3.582873,-0.0157 4.123249,0.09273 0.56243,0.112849 1.180108,0.365247 1.645763,0.672493 0.325481,0.214766 0.862162,0.755926 1.091386,1.100516 0.940197,1.4134 1.085859,3.45844 0.389073,5.46245 -0.664707,1.91173 -1.900315,3.29239 -3.389492,3.78742 -0.527061,0.1752 -0.430662,0.16867 -3.886304,0.26343 -0.526082,0.0144 -2.285783,0.0345 -3.910446,0.0446 -1.624664,0.0101 -3.295747,0.0299 -3.713518,0.0438 -0.41777,0.0139 -1.188733,0.037 -1.713247,0.0512 -1.009055,0.0273 -1.000183,0.0258 -1.001127,0.16112 -7.7e-4,0.10856 -0.189148,0.79694 -0.281403,1.02826 -0.402946,1.01033 -1.105317,1.80906 -2.001379,2.27597 -0.451139,0.23508 -0.934503,0.40156 -1.403035,0.48325 -0.168362,0.0294 -0.28205,0.0303 -0.562653,0.005 z m 0.99273,-2.36363 c 0.445817,-0.2289 0.831113,-0.69441 1.020788,-1.23333 0.06738,-0.19145 0.07179,-0.22335 0.03575,-0.25915 -0.03603,-0.0358 -0.07205,-0.032 -0.292632,0.0309 -0.395661,0.11274 -0.796854,0.31968 -0.997094,0.51432 -0.229347,0.22293 -0.312172,0.40925 -0.330196,0.74278 -0.01224,0.22648 -0.0076,0.25901 0.04662,0.32684 0.05872,0.0734 0.06301,0.0743 0.172964,0.0358 0.06201,-0.0217 0.216723,-0.0929 0.343796,-0.15814 z"
       id="path2100" />
  </g>
</svg>
